<?xml version="1.0" encoding="UTF-8" standalone="no"?>
<!DOCTYPE svg PUBLIC "-//W3C//DTD SVG 1.1//EN" "http://www.w3.org/Graphics/SVG/1.1/DTD/svg11.dtd">
<svg width="100%" height="100%" viewBox="0 0 896 720" version="1.1" xmlns="http://www.w3.org/2000/svg" xmlns:xlink="http://www.w3.org/1999/xlink" xml:space="preserve" xmlns:serif="http://www.serif.com/" style="fill-rule:evenodd;clip-rule:evenodd;stroke-linecap:round;stroke-linejoin:round;stroke-miterlimit:1.5;">
    <g transform="matrix(1,0,0,1,-64,-152)">
        <g transform="matrix(1,0,0,1,0,21.6817)">
            <g>
                <g id="Background" transform="matrix(0.996109,0,0,1,6.47082,0.189714)">
                    <g transform="matrix(1,0,0,1,-5.5,1.97011)">
                        <path d="M876.466,633.233C864.86,645.464 816.416,656.51 789.2,576.249C774.573,533.113 772.018,419.482 766.829,383.885C757.03,316.662 731.604,272.226 729.656,267.463C711.978,224.233 760.62,269.514 778.966,357.228C790.136,410.634 789.419,503.018 796.372,539.239C808.249,601.111 846.203,645.012 876.165,633.352L876.466,633.233Z" style="fill:rgb(180,200,226);"/>
                    </g>
                    <g id="Path-8" serif:id="Path 8" transform="matrix(1,0,0,1,0,1.97011)">
                        <path d="M506.5,136.511C511.467,136.547 613.923,132.749 679.5,178.504L686.5,177.352C761.947,164.93 851.839,267.16 888.268,309.292C981.48,417.097 943.236,457.043 906.238,537.905C885.462,583.313 898.624,622.471 870.665,633.352C840.703,645.012 802.749,601.111 790.872,539.239C783.919,503.018 784.636,410.634 773.466,357.228C755.12,269.514 706.478,224.233 724.156,267.463C726.104,272.226 751.53,316.662 761.329,383.885C766.518,419.482 768.762,522.804 783.7,576.249L778.832,583.176C752.176,621.104 762.026,678.507 732.882,721.225C701.574,767.116 627.456,818.736 583.5,810.456C583.5,810.456 581.528,821.467 560.371,830.269C539.171,839.089 513.258,839.87 506.5,839.87L506.5,136.511Z" style="fill:rgb(25,60,106);"/>
                    </g>
                    <g transform="matrix(0.98347,0.33713,-0.338447,0.979643,207.18,-129.099)">
                        <path d="M556.332,561.627C555.436,569.372 549.981,575.884 542.349,577.364C532.759,579.225 521.04,575.271 519.03,565.058C517.716,558.386 522.473,556.836 524.823,558.545C534.267,565.415 537.234,569.652 546.433,567.867C550.513,567.075 553.944,564.785 556.332,561.627Z" style="fill:rgb(56,109,159);"/>
                    </g>
                    <g transform="matrix(0.76269,-6.59195e-17,-3.88578e-16,0.62619,168.775,292.875)">
                        <path d="M649.955,674.919C653.06,675.927 644.783,699.059 626.485,709.719C624.506,710.872 609.756,715.496 603.724,726.412C599.402,734.233 591.103,782.64 582.14,772.375C576.291,765.676 588.777,704.669 600.114,691.758C612.335,677.839 645.022,673.319 649.955,674.919Z" style="fill:rgb(56,109,159);"/>
                    </g>
                    <g id="Path-19" serif:id="Path 19" transform="matrix(1,0,0,1,-13.0508,-4.74172)">
                        <path d="M602.548,218.916C575.581,232.799 540.099,278.686 538.47,335.745C536.34,410.371 596.569,445.399 642.39,495.059C685.633,541.925 677.631,600.924 686.325,634.509C693.851,663.582 761.77,592.637 705.728,526.329C663.147,475.948 537.75,401.133 564.672,311.011C597.109,202.427 686.335,256.035 690.684,245.476C695.033,234.918 649.329,194.832 602.548,218.916Z" style="fill:rgb(56,109,159);fill-rule:nonzero;"/>
                    </g>
                    <g transform="matrix(1.37591,1.02391e-17,-1.02391e-17,1.37591,-362.335,-202.054)">
                        <path d="M705.161,434.053C703.129,429.173 702,423.772 702,418.093C702,396.33 718.579,378.662 739,378.662C759.421,378.662 776,396.33 776,418.093C776,439.855 759.421,457.524 739,457.524C737.756,457.524 736.526,457.458 735.313,457.33C750.47,456.261 762.471,442.803 762.471,426.382C762.471,409.263 749.43,395.366 733.367,395.366C717.304,395.366 704.262,409.263 704.262,426.382C704.262,429.029 704.574,431.6 705.161,434.053Z" style="fill:white;"/>
                    </g>
                </g>
                <g id="Background1" serif:id="Background" transform="matrix(-0.996109,0,0,1,1017.53,0.189714)">
                    <g transform="matrix(1,0,0,1,-5.5,1.97011)">
                        <path d="M876.466,633.233C864.86,645.464 816.416,656.51 789.2,576.249C774.573,533.113 772.018,419.482 766.829,383.885C757.03,316.662 731.604,272.226 729.656,267.463C711.978,224.233 760.62,269.514 778.966,357.228C790.136,410.634 789.419,503.018 796.372,539.239C808.249,601.111 846.203,645.012 876.165,633.352L876.466,633.233Z" style="fill:rgb(180,200,226);"/>
                    </g>
                    <g id="Path-81" serif:id="Path 8" transform="matrix(1,0,0,1,0,1.97011)">
                        <path d="M506.5,136.511C511.467,136.547 613.923,132.749 679.5,178.504L686.5,177.352C761.947,164.93 851.839,267.16 888.268,309.292C981.48,417.097 943.236,457.043 906.238,537.905C885.462,583.313 898.624,622.471 870.665,633.352C840.703,645.012 802.749,601.111 790.872,539.239C783.919,503.018 784.636,410.634 773.466,357.228C755.12,269.514 706.478,224.233 724.156,267.463C726.104,272.226 751.53,316.662 761.329,383.885C766.518,419.482 768.762,522.804 783.7,576.249L778.832,583.176C752.176,621.104 762.026,678.507 732.882,721.225C701.574,767.116 627.456,818.736 583.5,810.456C583.5,810.456 581.528,821.467 560.371,830.269C539.171,839.089 513.258,839.87 506.5,839.87L506.5,136.511Z" style="fill:rgb(25,60,106);"/>
                    </g>
                    <g transform="matrix(0.98347,0.33713,-0.338447,0.979643,207.18,-129.099)">
                        <path d="M556.332,561.627C555.436,569.372 549.981,575.884 542.349,577.364C532.759,579.225 521.04,575.271 519.03,565.058C517.716,558.386 522.473,556.836 524.823,558.545C534.267,565.415 537.234,569.652 546.433,567.867C550.513,567.075 553.944,564.785 556.332,561.627Z" style="fill:rgb(56,109,159);"/>
                    </g>
                    <g transform="matrix(0.76269,-6.59195e-17,-3.88578e-16,0.62619,168.775,292.875)">
                        <path d="M649.955,674.919C653.06,675.927 644.783,699.059 626.485,709.719C624.506,710.872 609.756,715.496 603.724,726.412C599.402,734.233 591.103,782.64 582.14,772.375C576.291,765.676 588.777,704.669 600.114,691.758C612.335,677.839 645.022,673.319 649.955,674.919Z" style="fill:rgb(56,109,159);"/>
                    </g>
                    <g id="Path-191" serif:id="Path 19" transform="matrix(1,0,0,1,-13.0508,-4.74172)">
                        <path d="M602.548,218.916C575.581,232.799 540.099,278.686 538.47,335.745C536.34,410.371 596.569,445.399 642.39,495.059C685.633,541.925 677.631,600.924 686.325,634.509C693.851,663.582 761.77,592.637 705.728,526.329C663.147,475.948 537.75,401.133 564.672,311.011C597.109,202.427 686.335,256.035 690.684,245.476C695.033,234.918 649.329,194.832 602.548,218.916Z" style="fill:rgb(56,109,159);fill-rule:nonzero;"/>
                    </g>
                    <g transform="matrix(1.37591,1.02391e-17,-1.02391e-17,1.37591,-362.335,-202.054)">
                        <path d="M705.161,434.053C703.129,429.173 702,423.772 702,418.093C702,396.33 718.579,378.662 739,378.662C759.421,378.662 776,396.33 776,418.093C776,439.855 759.421,457.524 739,457.524C737.756,457.524 736.526,457.458 735.313,457.33C750.47,456.261 762.471,442.803 762.471,426.382C762.471,409.263 749.43,395.366 733.367,395.366C717.304,395.366 704.262,409.263 704.262,426.382C704.262,429.029 704.574,431.6 705.161,434.053Z" style="fill:white;"/>
                    </g>
                </g>
            </g>
            <g>
                <g transform="matrix(1.41587,0.0662835,-0.383984,1.45991,51.1175,-486.023)">
                    <path d="M595.082,789.246L595.082,822.341C595.082,841.06 579.254,856.258 559.757,856.258L529.479,856.258C509.983,856.258 494.154,841.06 494.154,822.341L494.154,789.246C494.154,770.527 509.983,755.329 529.479,755.329L559.757,755.329C579.254,755.329 595.082,770.527 595.082,789.246Z" style="fill:rgb(206,105,125);"/>
                </g>
                <g transform="matrix(1.00848,-0.0338602,-0.0338602,1.13516,26.3385,-129.97)">
                    <path d="M497.952,801.234L513.334,739.838" style="fill:none;stroke:rgb(193,65,90);stroke-opacity:0.4;stroke-width:5.77px;"/>
                </g>
                <g transform="matrix(1.22121,0,0,1.07786,-116.281,-69.7046)">
                    <ellipse cx="515.294" cy="676.249" rx="54.619" ry="12.623" style="fill:rgb(25,60,106);"/>
                </g>
                <g transform="matrix(1,0,0,1,0,31.999)">
                    <g id="Path-16" serif:id="Path 16" transform="matrix(0.996109,0,0,1,11.4708,16.1598)">
                        <g id="Path-161" serif:id="Path 16">
                            <path id="Path-162" serif:id="Path 16" d="M525,442.28C532.94,440.109 636.916,467.085 670.307,546.997C706.965,634.728 644.28,703.843 580.037,681.123C534.007,664.844 521.732,624.066 521.732,624.066C521.732,624.066 586.026,611.191 594.517,557.873C601.688,512.844 614.062,509.592 541.362,468.047C517.562,454.447 517.06,444.45 525,442.28ZM600.206,603.019C598.701,604.988 598.291,612.571 599.735,614.366C600.879,615.788 607.168,615.132 608.063,614.424C608.744,613.884 612.599,605.771 608.234,602.793C605.857,601.171 601.095,601.857 600.206,603.019ZM634,603.492C629.362,605.258 627.885,616.26 635.067,616.934C642.71,617.651 641.85,609.91 641.757,609.067C641.669,608.275 640.848,600.884 634,603.492ZM612.5,635.332C610.457,637.415 609.718,646.572 616.356,646.443C621.619,646.34 623.135,641.537 622.611,639.31C621.221,633.402 615.024,632.759 612.5,635.332Z" style="fill:rgb(180,200,226);"/>
                        </g>
                    </g>
                    <g id="Path-163" serif:id="Path 16" transform="matrix(-0.996109,0,0,1,1012.53,16.1598)">
                        <g id="Path-164" serif:id="Path 16">
                            <path id="Path-165" serif:id="Path 16" d="M525,442.28C532.94,440.109 636.916,467.085 670.307,546.997C706.965,634.728 644.28,703.843 580.037,681.123C534.007,664.844 521.732,624.066 521.732,624.066C521.732,624.066 586.026,611.191 594.517,557.873C601.688,512.844 614.062,509.592 541.362,468.047C517.562,454.447 517.06,444.45 525,442.28ZM600.206,603.019C598.701,604.988 598.291,612.571 599.735,614.366C600.879,615.788 607.168,615.132 608.063,614.424C608.744,613.884 612.599,605.771 608.234,602.793C605.857,601.171 601.095,601.857 600.206,603.019ZM634,603.492C629.362,605.258 627.885,616.26 635.067,616.934C642.71,617.651 641.85,609.91 641.757,609.067C641.669,608.275 640.848,600.884 634,603.492ZM612.5,635.332C610.457,637.415 609.718,646.572 616.356,646.443C621.619,646.34 623.135,641.537 622.611,639.31C621.221,633.402 615.024,632.759 612.5,635.332Z" style="fill:rgb(180,200,226);"/>
                        </g>
                    </g>
                </g>
            </g>
        </g>
    </g>
</svg>
